<svg width="639" height="43" viewBox="0 0 639 43" fill="none" xmlns="http://www.w3.org/2000/svg">
<path opacity="0.2" d="M4 22H635" stroke="white" stroke-width="8" stroke-linecap="round"/>
<ellipse cx="416.137" cy="21.5" rx="23.1367" ry="21.5" fill="white"/>
<path d="M413.852 19.9688H415.656C416.516 19.9688 417.152 19.7539 417.566 19.3242C417.98 18.8945 418.187 18.3242 418.187 17.6133C418.187 16.9258 417.98 16.3906 417.566 16.0078C417.16 15.625 416.598 15.4336 415.879 15.4336C415.23 15.4336 414.687 15.6133 414.25 15.9727C413.812 16.3242 413.594 16.7852 413.594 17.3555H410.207C410.207 16.4648 410.445 15.668 410.922 14.9648C411.406 14.2539 412.078 13.6992 412.937 13.3008C413.805 12.9023 414.758 12.7031 415.797 12.7031C417.602 12.7031 419.016 13.1367 420.039 14.0039C421.062 14.8633 421.574 16.0508 421.574 17.5664C421.574 18.3477 421.336 19.0664 420.859 19.7227C420.383 20.3789 419.758 20.8828 418.984 21.2344C419.945 21.5781 420.66 22.0938 421.129 22.7812C421.605 23.4688 421.844 24.2812 421.844 25.2188C421.844 26.7344 421.289 27.9492 420.18 28.8633C419.078 29.7773 417.617 30.2344 415.797 30.2344C414.094 30.2344 412.699 29.7852 411.613 28.8867C410.535 27.9883 409.996 26.8008 409.996 25.3242H413.383C413.383 25.9648 413.621 26.4883 414.098 26.8945C414.582 27.3008 415.176 27.5039 415.879 27.5039C416.684 27.5039 417.312 27.293 417.766 26.8711C418.227 26.4414 418.457 25.875 418.457 25.1719C418.457 23.4688 417.519 22.6172 415.644 22.6172H413.852V19.9688Z" fill="black"/>
</svg>
