<svg width="639" height="43" viewBox="0 0 639 43" fill="none" xmlns="http://www.w3.org/2000/svg">
<path opacity="0.2" d="M4 22H635" stroke="white" stroke-width="8" stroke-linecap="round"/>
<ellipse cx="206.137" cy="21.5" rx="23.1367" ry="21.5" fill="white"/>
<path d="M212.102 30H200.406V27.6797L205.926 21.7969C206.684 20.9688 207.242 20.2461 207.602 19.6289C207.969 19.0117 208.152 18.4258 208.152 17.8711C208.152 17.1133 207.961 16.5195 207.578 16.0898C207.195 15.6523 206.648 15.4336 205.937 15.4336C205.172 15.4336 204.566 15.6992 204.121 16.2305C203.684 16.7539 203.465 17.4453 203.465 18.3047H200.066C200.066 17.2656 200.312 16.3164 200.805 15.457C201.305 14.5977 202.008 13.9258 202.914 13.4414C203.82 12.9492 204.848 12.7031 205.996 12.7031C207.754 12.7031 209.117 13.125 210.086 13.9688C211.062 14.8125 211.551 16.0039 211.551 17.543C211.551 18.3867 211.332 19.2461 210.895 20.1211C210.457 20.9961 209.707 22.0156 208.645 23.1797L204.766 27.2695H212.102V30Z" fill="black"/>
</svg>
