<svg width="344" height="93" viewBox="0 0 344 93" fill="none" xmlns="http://www.w3.org/2000/svg">
<g filter="url(#filter0_d)">
<path d="M4 23C4 10.2975 14.2975 0 27 0H317C329.703 0 340 10.2975 340 23V62C340 74.7026 329.703 85 317 85H27C14.2974 85 4 74.7026 4 62V23Z" fill="#C1E4DC"/>
</g>
<path d="M112.297 23.088H117.073V21.456H105.433V23.088H110.353V25.824C110.353 29.472 107.761 33.552 104.689 35.088L105.841 36.648C108.265 35.4 110.353 32.664 111.337 29.52C112.321 32.4 114.337 34.92 116.737 36.12L117.865 34.536C114.745 33.072 112.297 29.256 112.297 25.824V23.088ZM125.161 27.936H121.609V19.272H119.641V40.776H121.609V29.592H125.161V27.936ZM129.335 26.016C129.335 23.88 130.895 22.344 133.007 22.344C135.095 22.344 136.655 23.88 136.655 26.016C136.655 28.152 135.095 29.688 133.007 29.688C130.895 29.688 129.335 28.152 129.335 26.016ZM142.871 24.216V27.792H138.239C138.431 27.24 138.527 26.64 138.527 26.016C138.527 25.368 138.431 24.768 138.239 24.216H142.871ZM142.871 29.376V35.16H144.863V19.272H142.871V22.632H137.399C136.391 21.384 134.855 20.616 133.007 20.616C129.839 20.616 127.463 22.872 127.463 26.016C127.463 29.16 129.839 31.416 133.007 31.416C134.855 31.416 136.415 30.648 137.423 29.376H142.871ZM133.079 38.688V33.528H131.087V40.296H145.463V38.688H133.079ZM159.934 36.432V30.912H166.486V29.328H153.646V22.584H166.27V20.976H151.678V30.912H157.942V36.432H149.182V38.064H168.742V36.432H159.934ZM178.94 26.952C182.564 26.616 185.852 25.2 187.004 22.992C188.18 25.2 191.444 26.592 195.068 26.952L195.692 25.44C191.948 25.152 188.54 23.592 188.3 21.456H194.948V19.92H179.06V21.456H185.708C185.468 23.592 182.036 25.152 178.292 25.44L178.94 26.952ZM186.98 39.552C184.124 39.552 182.54 39.048 182.54 38.088C182.54 37.08 184.124 36.6 186.98 36.6C189.836 36.6 191.444 37.08 191.444 38.088C191.444 39.048 189.836 39.552 186.98 39.552ZM186.98 35.208C182.828 35.208 180.524 36.192 180.524 38.088C180.524 39.936 182.828 40.896 186.98 40.896C191.132 40.896 193.46 39.936 193.46 38.088C193.46 36.192 191.132 35.208 186.98 35.208ZM187.988 30.624H186.02V32.64H179.06V34.152H194.924V32.64H187.988V30.624ZM187.964 28.176V25.608H185.996V28.176H177.26V29.76H196.748V28.176H187.964ZM207.018 23.088H212.082V21.456H200.058V23.088H205.05V25.824C205.05 29.544 202.434 33.6 199.338 35.064L200.49 36.648C202.938 35.4 205.05 32.688 206.034 29.544C207.066 32.496 209.178 34.968 211.674 36.12L212.778 34.536C209.61 33.192 207.018 29.472 207.018 25.824V23.088ZM214.986 19.272V40.776H216.954V19.272H214.986ZM230.273 29.568H224.225V22.752H230.273V29.568ZM232.193 21.168H222.305V31.128H232.193V21.168ZM226.697 33.528H224.729V40.296H239.081V38.688H226.697V33.528ZM238.121 25.8V19.224H236.153V34.992H238.121V27.456H241.289V25.8H238.121ZM63.2323 56.44C63.7843 53.608 63.7843 51.472 63.7843 50.056V48.928H53.0803V50.536H61.8643C61.8643 51.904 61.7923 53.752 61.2883 56.224L63.2323 56.44ZM65.2723 57.736C63.0883 58.024 60.6403 58.216 58.2883 58.312V53.728H56.3443V58.384C54.7123 58.408 53.1523 58.432 51.7843 58.432L51.9763 60.04C55.7923 60.04 60.9523 59.92 65.4163 59.176L65.2723 57.736ZM57.0403 61.984H55.0723V68.296H69.3763V66.688H57.0403V61.984ZM68.6803 54.256V47.248H66.7123V63.472H68.6803V55.888H71.7523V54.256H68.6803ZM85.2864 55.6C85.8384 53.056 85.8384 51.112 85.8384 49.744V48.592H75.1824V50.176H83.9184C83.9184 51.472 83.8704 53.152 83.3664 55.432L85.2864 55.6ZM87.3504 56.944C85.1424 57.208 82.7184 57.376 80.3664 57.472V53.272H78.4224V57.52C76.8144 57.568 75.2304 57.568 73.8624 57.568L74.0784 59.2C77.9424 59.2 83.0304 59.08 87.4944 58.384L87.3504 56.944ZM83.8224 67.168C80.6304 67.168 78.6624 66.304 78.6624 64.816C78.6624 63.352 80.6304 62.488 83.8224 62.488C87.0144 62.488 88.9824 63.352 88.9824 64.816C88.9824 66.304 87.0144 67.168 83.8224 67.168ZM83.8224 60.952C79.4064 60.952 76.6704 62.368 76.6704 64.816C76.6704 67.312 79.4064 68.728 83.8224 68.728C88.2384 68.728 90.9744 67.312 90.9744 64.816C90.9744 62.368 88.2384 60.952 83.8224 60.952ZM90.7584 53.128V47.224H88.7904V60.664H90.7584V54.76H93.8064V53.128H90.7584ZM110.941 56.872H104.989V50.464H110.941V56.872ZM117.805 52.336V55H112.861V52.336H117.805ZM112.861 56.584H117.805V59.992H119.797V47.272H117.805V50.752H112.861V48.88H103.045V58.432H112.861V56.584ZM112.669 67.216C109.453 67.216 107.485 66.28 107.485 64.696C107.485 63.112 109.453 62.176 112.669 62.176C115.933 62.176 117.901 63.112 117.901 64.696C117.901 66.28 115.933 67.216 112.669 67.216ZM112.669 60.64C108.253 60.64 105.517 62.104 105.517 64.696C105.517 67.264 108.253 68.752 112.669 68.752C117.109 68.752 119.869 67.264 119.869 64.696C119.869 62.104 117.109 60.64 112.669 60.64ZM142.715 57.76C138.947 57.088 134.843 53.92 134.843 50.344V48.688H132.779V50.344C132.779 53.92 128.699 57.088 124.931 57.76L125.747 59.392C129.059 58.696 132.419 56.464 133.811 53.392C135.203 56.464 138.587 58.696 141.875 59.392L142.715 57.76ZM134.795 64.36V59.128H132.827V64.36H124.139V65.968H143.675V64.36H134.795ZM163.473 53.728H150.801V48.04H148.833V55.336H163.473V53.728ZM150.657 61.96H148.689V68.248H163.593V66.64H150.657V61.96ZM146.193 58.216V59.8H165.705V58.216H146.193ZM183.992 67.36C181.184 67.36 179.576 66.856 179.576 65.848C179.576 64.84 181.184 64.336 183.992 64.336C186.8 64.336 188.432 64.84 188.432 65.848C188.432 66.856 186.8 67.36 183.992 67.36ZM183.992 62.92C179.864 62.92 177.536 63.952 177.536 65.848C177.536 67.72 179.864 68.752 183.992 68.752C188.144 68.752 190.472 67.72 190.472 65.848C190.472 63.952 188.144 62.92 183.992 62.92ZM185 58.432H183.032V60.4H176.072V61.912H191.936V60.4H185V58.432ZM185.024 56.008V53.848H191.552V52.288H178.904V47.56H176.936V53.848H183.056V56.008H174.272V57.592H193.76V56.008H185.024ZM214.014 47.272H212.046V58.648H214.014V47.272ZM209.646 56.632C206.55 55.792 204.27 53.608 204.126 51.112H209.022V49.528H204.174V47.08H202.206V49.528H197.31V51.112H202.206C202.062 53.776 199.854 56.056 196.734 56.944L197.646 58.48C200.238 57.688 202.278 56.008 203.214 53.776C204.222 55.84 206.238 57.424 208.806 58.144L209.646 56.632ZM202.062 67V64.696H214.014V59.68H200.07V61.192H212.07V63.256H200.118V68.536H214.734V67H202.062ZM242.933 55.456C239.021 54.88 235.181 52.216 235.181 49.216V48.016H233.117V49.216C233.117 52.288 229.325 54.88 225.413 55.456L226.205 57.04C229.565 56.464 232.805 54.616 234.149 52C235.541 54.592 238.781 56.464 242.117 57.04L242.933 55.456ZM243.869 59.368H224.429V61H233.117V68.8H235.085V61H243.893L243.869 59.368ZM260.548 66.952H256.756V64.048H260.548V66.952ZM260.548 62.584H256.756V59.872H254.908V68.488H262.372V59.872H260.548V62.584ZM258.34 56.488C256.204 56.488 254.668 55.096 254.668 53.152C254.668 51.208 256.204 49.84 258.34 49.84C260.476 49.84 262.012 51.208 262.012 53.152C262.012 55.096 260.476 56.488 258.34 56.488ZM268.204 53.92V58.648H270.196V47.272H268.204V52.312H263.812C263.404 49.84 261.244 48.208 258.34 48.208C255.124 48.208 252.796 50.2 252.796 53.152C252.796 56.104 255.124 58.12 258.34 58.12C261.292 58.12 263.452 56.44 263.836 53.92H268.204ZM268.468 59.728H266.548V61.552C266.548 63.76 265.204 66.088 262.636 67.192L263.644 68.68C265.516 67.864 266.812 66.376 267.508 64.624C268.156 66.4 269.452 67.864 271.396 68.68L272.38 67.192C269.812 66.184 268.468 63.832 268.468 61.552V59.728ZM280.298 62.176C278.234 62.176 276.794 59.92 276.794 56.416C276.794 52.936 278.234 50.68 280.298 50.68C282.338 50.68 283.778 52.936 283.778 56.416C283.778 59.92 282.338 62.176 280.298 62.176ZM290.306 47.248V55.456H285.626C285.314 51.424 283.202 48.904 280.298 48.904C277.154 48.904 274.922 51.832 274.922 56.416C274.922 61 277.154 63.928 280.298 63.928C283.298 63.928 285.434 61.288 285.626 57.064H290.306V68.824H292.274V47.248H290.306Z" fill="black"/>
<defs>
<filter id="filter0_d" x="0" y="0" width="344" height="93" filterUnits="userSpaceOnUse" color-interpolation-filters="sRGB">
<feFlood flood-opacity="0" result="BackgroundImageFix"/>
<feColorMatrix in="SourceAlpha" type="matrix" values="0 0 0 0 0 0 0 0 0 0 0 0 0 0 0 0 0 0 127 0" result="hardAlpha"/>
<feOffset dy="4"/>
<feGaussianBlur stdDeviation="2"/>
<feColorMatrix type="matrix" values="0 0 0 0 0 0 0 0 0 0 0 0 0 0 0 0 0 0 0.25 0"/>
<feBlend mode="normal" in2="BackgroundImageFix" result="effect1_dropShadow"/>
<feBlend mode="normal" in="SourceGraphic" in2="effect1_dropShadow" result="shape"/>
</filter>
</defs>
</svg>
