<svg width="344" height="93" viewBox="0 0 344 93" fill="none" xmlns="http://www.w3.org/2000/svg">
<g filter="url(#filter0_d)">
<path d="M4 23C4 10.2975 14.2975 0 27 0H317C329.703 0 340 10.2975 340 23V62C340 74.7026 329.703 85 317 85H27C14.2974 85 4 74.7026 4 62V23Z" fill="#67D5B5"/>
</g>
<path d="M107.634 30.266C103.818 29.762 100.026 27.362 100.026 24.674V23.738H98.0098V24.674C98.0098 27.434 94.2418 29.738 90.3778 30.266L91.0978 31.802C94.4338 31.298 97.6738 29.618 99.0178 27.194C100.386 29.618 103.602 31.298 106.914 31.802L107.634 30.266ZM101.394 43.106H96.6418V39.074H101.394V43.106ZM108.738 35.042V33.458H89.2498V35.042H98.0098V37.49H91.4338V39.074H94.6978V43.106H91.2418V44.69H106.794V43.106H103.338V39.074H106.602V37.49H100.002V35.042H108.738ZM127 23.498V45.074H128.968V23.498H127ZM117.616 25.154C114.424 25.154 112.144 28.082 112.144 32.666C112.144 37.25 114.424 40.178 117.616 40.178C120.808 40.178 123.088 37.25 123.088 32.666C123.088 28.082 120.808 25.154 117.616 25.154ZM117.616 26.93C119.704 26.93 121.192 29.186 121.192 32.666C121.192 36.17 119.704 38.426 117.616 38.426C115.504 38.426 114.016 36.17 114.016 32.666C114.016 29.186 115.504 26.93 117.616 26.93ZM136.238 25.586H134.294V39.578H135.998C139.286 39.578 142.574 39.338 146.246 38.594L146.006 36.962C142.526 37.658 139.334 37.922 136.238 37.922V25.586ZM153.446 32.09H149.99V23.498H148.022V45.026H149.99V33.722H153.446V32.09ZM170.296 38.234H164.152V32.57H170.296V38.234ZM170.296 31.01H164.152V25.322H162.208V39.842H172.216V25.322H170.296V31.01ZM181.456 31.97H177.904V23.522H175.936V45.002H177.904V33.626H181.456V31.97ZM186.302 27.194H194.342V25.562H184.334V39.698H186.038C190.094 39.698 192.926 39.554 196.214 38.93L195.998 37.298C192.878 37.85 190.118 38.018 186.302 38.018V27.194ZM203.534 31.994H199.982V23.498H198.014V45.074H199.982V33.626H203.534V31.994ZM212.296 25.01V26.594H220.12C219.832 29.93 216.832 32.642 211.408 33.818L212.2 35.402C218.536 33.938 222.304 30.41 222.304 25.01H212.296ZM216.448 41.042H227.896V39.578H216.448V37.442H228.136V35.978H214.48V44.738H228.616V43.25H216.448V41.042ZM228.04 28.49V23.498H226.072V34.994H228.04V30.122H231.232V28.49H228.04ZM243.134 25.826C246.518 25.826 248.678 26.834 248.678 28.538C248.678 30.242 246.518 31.226 243.134 31.226C239.75 31.226 237.59 30.242 237.59 28.538C237.59 26.834 239.75 25.826 243.134 25.826ZM243.134 32.81C247.742 32.81 250.694 31.226 250.694 28.538C250.694 25.85 247.742 24.242 243.134 24.242C238.526 24.242 235.574 25.85 235.574 28.538C235.574 31.226 238.526 32.81 243.134 32.81ZM237.878 38.306H235.91V44.546H250.718V42.938H237.878V38.306ZM233.39 34.826V36.41H252.854V34.826H233.39ZM110.479 55.338H115.255V53.706H103.615V55.338H108.535V58.074C108.535 61.722 105.943 65.802 102.871 67.338L104.023 68.898C106.447 67.65 108.535 64.914 109.519 61.77C110.503 64.65 112.519 67.17 114.919 68.37L116.047 66.786C112.927 65.322 110.479 61.506 110.479 58.074V55.338ZM123.343 60.186H119.791V51.522H117.823V73.026H119.791V61.842H123.343V60.186ZM127.517 58.266C127.517 56.13 129.077 54.594 131.189 54.594C133.277 54.594 134.837 56.13 134.837 58.266C134.837 60.402 133.277 61.938 131.189 61.938C129.077 61.938 127.517 60.402 127.517 58.266ZM141.053 56.466V60.042H136.421C136.613 59.49 136.709 58.89 136.709 58.266C136.709 57.618 136.613 57.018 136.421 56.466H141.053ZM141.053 61.626V67.41H143.045V51.522H141.053V54.882H135.581C134.573 53.634 133.037 52.866 131.189 52.866C128.021 52.866 125.645 55.122 125.645 58.266C125.645 61.41 128.021 63.666 131.189 63.666C133.037 63.666 134.597 62.898 135.605 61.626H141.053ZM131.261 70.938V65.778H129.269V72.546H143.645V70.938H131.261ZM163.035 51.498V73.074H165.003V51.498H163.035ZM153.651 53.154C150.459 53.154 148.179 56.082 148.179 60.666C148.179 65.25 150.459 68.178 153.651 68.178C156.843 68.178 159.123 65.25 159.123 60.666C159.123 56.082 156.843 53.154 153.651 53.154ZM153.651 54.93C155.739 54.93 157.227 57.186 157.227 60.666C157.227 64.17 155.739 66.426 153.651 66.426C151.539 66.426 150.051 64.17 150.051 60.666C150.051 57.186 151.539 54.93 153.651 54.93ZM176.981 63.594C179.549 62.778 181.541 61.074 182.477 58.818C183.461 60.954 185.429 62.586 187.973 63.354L188.885 61.842C185.741 60.906 183.485 58.626 183.437 55.89H188.405V54.306H183.437V51.642H181.469V54.306H176.573V55.89H181.469C181.421 58.722 179.237 61.098 176.069 62.058L176.981 63.594ZM183.437 62.874H181.469V66.882C179.285 66.954 177.197 66.954 175.421 66.954L175.685 68.61C179.525 68.586 184.805 68.562 189.629 67.674L189.461 66.21C187.541 66.522 185.453 66.666 183.437 66.786V62.874ZM190.877 51.498V73.05H192.845V51.498H190.877ZM212.571 55.794C212.571 58.386 212.571 61.41 211.755 65.538L213.723 65.754C214.539 61.41 214.539 58.458 214.539 55.794V53.658H199.443V55.266H212.571V55.794ZM206.931 68.394V60.69H204.963V68.394H197.403V70.002H216.867V68.394H206.931ZM227.137 55.338H232.201V53.706H220.177V55.338H225.169V58.074C225.169 61.794 222.553 65.85 219.457 67.314L220.609 68.898C223.057 67.65 225.169 64.938 226.153 61.794C227.185 64.746 229.297 67.218 231.793 68.37L232.897 66.786C229.729 65.442 227.137 61.722 227.137 58.074V55.338ZM235.105 51.522V73.026H237.073V51.522H235.105Z" fill="black"/>
<defs>
<filter id="filter0_d" x="0" y="0" width="344" height="93" filterUnits="userSpaceOnUse" color-interpolation-filters="sRGB">
<feFlood flood-opacity="0" result="BackgroundImageFix"/>
<feColorMatrix in="SourceAlpha" type="matrix" values="0 0 0 0 0 0 0 0 0 0 0 0 0 0 0 0 0 0 127 0" result="hardAlpha"/>
<feOffset dy="4"/>
<feGaussianBlur stdDeviation="2"/>
<feColorMatrix type="matrix" values="0 0 0 0 0 0 0 0 0 0 0 0 0 0 0 0 0 0 0.25 0"/>
<feBlend mode="normal" in2="BackgroundImageFix" result="effect1_dropShadow"/>
<feBlend mode="normal" in="SourceGraphic" in2="effect1_dropShadow" result="shape"/>
</filter>
</defs>
</svg>
