<svg width="414" height="63" viewBox="0 0 414 63" fill="none" xmlns="http://www.w3.org/2000/svg">
<path d="M21.742 13.21H5.69203V4.81H21.472V2.77H3.26203V15.22H21.742V13.21ZM0.142031 21.55V23.59H24.562V21.55H0.142031ZM31.9397 4.93H42.2297V2.86H29.5097V20.59H31.6697C37.0997 20.59 40.6097 20.41 44.7497 19.66L44.4797 17.59C40.5197 18.34 37.1297 18.49 31.9397 18.49V4.93ZM47.3297 0.31V27.28H49.7897V0.31H47.3297ZM62.5673 18.97C59.9873 18.97 58.1873 16.15 58.1873 11.77C58.1873 7.42 59.9873 4.6 62.5673 4.6C65.1173 4.6 66.9173 7.42 66.9173 11.77C66.9173 16.15 65.1173 18.97 62.5673 18.97ZM75.0773 0.31V10.57H69.2273C68.8373 5.53 66.1973 2.38 62.5673 2.38C58.6373 2.38 55.8473 6.04 55.8473 11.77C55.8473 17.5 58.6373 21.16 62.5673 21.16C66.3173 21.16 68.9873 17.86 69.2273 12.58H75.0773V27.28H77.5373V0.31H75.0773ZM93.1357 20.71H109.306V27.25H111.766V18.73H93.1357V20.71ZM95.9557 3.37H109.216V8.59H95.9557V3.37ZM103.846 13.96V10.54H111.646V1.42H93.5557V10.54H101.386V13.96H90.4057V15.94H114.766V13.96H103.846ZM133.903 13.45C130.003 12.07 127.363 8.68 127.363 5.23V4.15H133.273V2.14H118.903V4.15H124.903V5.23C124.903 9.04 122.113 12.64 118.123 14.05L119.413 16C122.563 14.83 125.023 12.37 126.163 9.28C127.363 12.07 129.673 14.29 132.673 15.37L133.903 13.45ZM122.203 19.87H137.713V27.25H140.203V17.89H122.203V19.87ZM137.713 0.31V7.33H132.463V9.34H137.713V16.42H140.203V0.31H137.713ZM155.231 5.11H161.561V3.07H146.531V5.11H152.771V8.53C152.771 13.18 149.501 18.25 145.631 20.08L147.071 22.06C150.131 20.5 152.771 17.11 154.001 13.18C155.291 16.87 157.931 19.96 161.051 21.4L162.431 19.42C158.471 17.74 155.231 13.09 155.231 8.53V5.11ZM165.191 0.339999V27.22H167.651V0.339999H165.191ZM179.319 19.03C177.159 19.03 175.809 16.3 175.809 11.89C175.809 7.57 177.159 4.84 179.319 4.84C181.419 4.84 182.799 7.57 182.799 11.89C182.799 16.3 181.419 19.03 179.319 19.03ZM188.409 10.78H185.019C184.719 5.71 182.559 2.56 179.319 2.56C175.809 2.56 173.559 6.16 173.559 11.89C173.559 17.71 175.809 21.31 179.319 21.31C182.619 21.31 184.809 18.07 185.019 12.79H188.409V25.9H190.749V0.909999H188.409V10.78ZM193.749 0.31V27.22H196.089V0.31H193.749ZM221.707 21.79V14.89H229.897V12.91H213.847V4.48H229.627V2.47H211.387V14.89H219.217V21.79H208.267V23.83H232.717V21.79H221.707ZM251.615 13.75C247.685 12.55 245.075 9.49 245.075 6.13V5.59H251.015V3.61H245.075V0.159998H242.615V3.61H236.645V5.59H242.615V6.13C242.615 9.79 239.915 12.97 235.925 14.23L237.155 16.18C240.275 15.1 242.705 12.91 243.875 10.06C245.045 12.67 247.385 14.71 250.415 15.67L251.615 13.75ZM239.285 20.14H254.315V27.22H256.775V18.13H239.285V20.14ZM260.765 7.48H256.775V0.339999H254.315V16.72H256.775V9.55H260.765V7.48ZM279.452 3.61H272.732V0.31H270.272V3.61H263.582V5.59H279.452V3.61ZM267.422 12.07C267.422 10.21 269.072 9.01 271.502 9.01C273.932 9.01 275.612 10.21 275.612 12.07C275.612 13.96 273.932 15.16 271.502 15.16C269.072 15.16 267.422 13.96 267.422 12.07ZM277.952 12.07C277.952 9.07 275.312 7.09 271.502 7.09C267.692 7.09 265.082 9.07 265.082 12.07C265.082 15.1 267.692 17.08 271.502 17.08C275.312 17.08 277.952 15.1 277.952 12.07ZM270.092 18.91H267.632V26.62H285.572V24.61H270.092V18.91ZM284.372 9.19V0.31H281.912V20.5H284.372V11.26H288.332V9.19H284.372ZM312.151 14.83C312.331 13.9 312.451 12.88 312.451 11.77C312.451 10.54 312.301 9.4 312.061 8.35H318.271V14.83H312.151ZM305.761 18.97C303.181 18.97 301.381 16.15 301.381 11.77C301.381 7.42 303.181 4.6 305.761 4.6C308.311 4.6 310.141 7.42 310.141 11.77C310.141 16.15 308.311 18.97 305.761 18.97ZM318.271 0.31V6.34H311.371C310.231 3.82 308.251 2.38 305.761 2.38C301.831 2.38 299.041 6.04 299.041 11.77C299.041 17.5 301.831 21.16 305.761 21.16C308.341 21.16 310.441 19.57 311.551 16.84H318.271V27.28H320.731V0.31H318.271ZM343.078 9.64H346.498V17.35H348.868V0.31H346.498V7.63H343.078V0.819998H340.738V16.36H343.078V9.64ZM339.658 3.52H334.078V0.519999H331.648V3.52H326.008V5.47H339.688L339.658 3.52ZM329.338 11.47C329.338 9.82 330.748 8.71 332.878 8.71C334.978 8.71 336.418 9.82 336.418 11.47C336.418 13.15 334.978 14.26 332.878 14.26C330.748 14.26 329.338 13.15 329.338 11.47ZM338.608 11.47C338.608 8.71 336.268 6.88 332.878 6.88C329.488 6.88 327.118 8.71 327.118 11.47C327.118 14.29 329.488 16.09 332.878 16.09C336.268 16.09 338.608 14.29 338.608 11.47ZM340.018 25.3C335.908 25.3 333.448 24.28 333.448 22.51C333.448 20.71 335.908 19.69 340.018 19.69C344.098 19.69 346.558 20.71 346.558 22.51C346.558 24.28 344.098 25.3 340.018 25.3ZM340.018 17.8C334.408 17.8 331.018 19.48 331.018 22.51C331.018 25.51 334.408 27.19 340.018 27.19C345.628 27.19 349.018 25.51 349.018 22.51C349.018 19.48 345.628 17.8 340.018 17.8ZM362.816 5.11H368.786V3.07H354.236V5.11H360.386V8.53C360.386 13.09 357.146 18.19 353.306 20.11L354.746 22.06C357.776 20.5 360.386 17.08 361.616 13.15C362.846 16.75 365.366 19.9 368.366 21.4L369.776 19.42C365.876 17.59 362.816 12.82 362.816 8.53V5.11ZM378.896 11.17H374.456V0.339999H371.996V27.22H374.456V13.24H378.896V11.17ZM398.034 10.24C393.804 11.11 389.874 11.44 385.464 11.44V1.87H383.004V13.51H385.194C389.844 13.51 393.894 13.18 398.364 12.28L398.034 10.24ZM388.404 18.79H401.004V24.85H388.404V18.79ZM386.004 26.83H403.404V16.84H386.004V26.83ZM400.944 0.279998V15.55H403.404V0.279998H400.944ZM412.957 18.7158H409.896L409.559 3.67188H413.309L412.957 18.7158ZM409.456 23.3154C409.456 22.7588 409.637 22.2998 409.998 21.9385C410.359 21.5674 410.853 21.3818 411.478 21.3818C412.103 21.3818 412.596 21.5674 412.957 21.9385C413.318 22.2998 413.499 22.7588 413.499 23.3154C413.499 23.8525 413.323 24.3018 412.972 24.6631C412.62 25.0244 412.122 25.2051 411.478 25.2051C410.833 25.2051 410.335 25.0244 409.983 24.6631C409.632 24.3018 409.456 23.8525 409.456 23.3154ZM45.5019 53.97C42.9219 53.97 41.1219 51.15 41.1219 46.77C41.1219 42.42 42.9219 39.6 45.5019 39.6C48.0519 39.6 49.8519 42.42 49.8519 46.77C49.8519 51.15 48.0519 53.97 45.5019 53.97ZM58.0119 35.31V45.57H52.1619C51.7719 40.53 49.1319 37.38 45.5019 37.38C41.5719 37.38 38.7819 41.04 38.7819 46.77C38.7819 52.5 41.5719 56.16 45.5019 56.16C49.2519 56.16 51.9219 52.86 52.1619 47.58H58.0119V62.28H60.4719V35.31H58.0119ZM81.0196 42.72V44.73H85.8496V54.93H88.3396V35.34H85.8496V42.72H81.0196ZM83.2996 47.97C81.2596 48.45 79.5496 48.54 77.2696 48.57V39.54H82.3096V37.56H74.8396V50.58H76.2196C79.1596 50.58 81.1396 50.52 83.5396 49.98L83.2996 47.97ZM73.7296 48C71.9596 48.39 70.3696 48.51 69.0496 48.57V39.54H73.3996V37.56H66.6196V50.58H67.8196C69.5296 50.58 71.5096 50.58 73.9396 50.01L73.7296 48ZM72.7996 59.61V53.28H70.3396V61.62H88.9996V59.61H72.7996ZM114.558 49.83C114.738 48.9 114.858 47.88 114.858 46.77C114.858 45.54 114.708 44.4 114.468 43.35H120.678V49.83H114.558ZM108.168 53.97C105.588 53.97 103.788 51.15 103.788 46.77C103.788 42.42 105.588 39.6 108.168 39.6C110.718 39.6 112.548 42.42 112.548 46.77C112.548 51.15 110.718 53.97 108.168 53.97ZM120.678 35.31V41.34H113.778C112.638 38.82 110.658 37.38 108.168 37.38C104.238 37.38 101.448 41.04 101.448 46.77C101.448 52.5 104.238 56.16 108.168 56.16C110.748 56.16 112.848 54.57 113.958 51.84H120.678V62.28H123.138V35.31H120.678ZM145.486 44.64H148.906V52.35H151.276V35.31H148.906V42.63H145.486V35.82H143.146V51.36H145.486V44.64ZM142.066 38.52H136.486V35.52H134.056V38.52H128.416V40.47H142.096L142.066 38.52ZM131.746 46.47C131.746 44.82 133.156 43.71 135.286 43.71C137.386 43.71 138.826 44.82 138.826 46.47C138.826 48.15 137.386 49.26 135.286 49.26C133.156 49.26 131.746 48.15 131.746 46.47ZM141.016 46.47C141.016 43.71 138.676 41.88 135.286 41.88C131.896 41.88 129.526 43.71 129.526 46.47C129.526 49.29 131.896 51.09 135.286 51.09C138.676 51.09 141.016 49.29 141.016 46.47ZM142.426 60.3C138.316 60.3 135.856 59.28 135.856 57.51C135.856 55.71 138.316 54.69 142.426 54.69C146.506 54.69 148.966 55.71 148.966 57.51C148.966 59.28 146.506 60.3 142.426 60.3ZM142.426 52.8C136.816 52.8 133.426 54.48 133.426 57.51C133.426 60.51 136.816 62.19 142.426 62.19C148.036 62.19 151.426 60.51 151.426 57.51C151.426 54.48 148.036 52.8 142.426 52.8ZM168.313 37.62C172.723 37.62 175.243 38.64 175.243 40.44C175.243 42.24 172.723 43.26 168.313 43.26C163.903 43.26 161.383 42.24 161.383 40.44C161.383 38.64 163.903 37.62 168.313 37.62ZM168.313 45.09C174.223 45.09 177.763 43.47 177.763 40.44C177.763 37.41 174.223 35.76 168.313 35.76C162.403 35.76 158.863 37.41 158.863 40.44C158.863 43.47 162.403 45.09 168.313 45.09ZM161.563 57.27H177.373V51.21H159.073V53.07H174.943V55.47H159.163V61.92H178.183V60H161.563V57.27ZM156.133 46.92V48.9H180.493V46.92H156.133ZM199.122 54.18C196.692 54.18 194.922 52.44 194.922 50.04C194.922 47.61 196.692 45.87 199.122 45.87C201.582 45.87 203.352 47.61 203.352 50.04C203.352 52.44 201.582 54.18 199.122 54.18ZM199.122 43.83C195.342 43.83 192.612 46.41 192.612 50.04C192.612 53.7 195.342 56.22 199.122 56.22C202.962 56.22 205.692 53.7 205.692 50.04C205.692 46.41 202.962 43.83 199.122 43.83ZM200.322 35.64H197.862V39.63H191.082V41.61H206.952V39.63H200.322V35.64ZM216.372 46.38H211.962V35.34H209.502V62.22H211.962V48.45H216.372V46.38ZM237.819 40.68C237.819 43.92 237.819 47.7 236.799 52.86L239.259 53.13C240.279 47.7 240.279 44.01 240.279 40.68V38.01H221.409V40.02H237.819V40.68ZM230.769 56.43V46.8H228.309V56.43H218.859V58.44H243.189V56.43H230.769ZM275.978 35.34H273.518V50.28H275.978V35.34ZM270.158 47.28C266.198 45.99 263.378 42.66 263.378 38.94V36.3H260.918V38.94C260.918 42.81 258.128 46.38 254.048 47.79L255.308 49.74C258.518 48.6 261.008 46.14 262.178 43.05C263.408 45.93 265.868 48.15 268.988 49.23L270.158 47.28ZM264.308 53.88H270.008V59.88H264.308V53.88ZM272.438 59.88V53.88H276.098V51.9H258.158V53.88H261.878V59.88H257.918V61.86H276.428V59.88H272.438ZM293.645 38.22C297.875 38.22 300.575 39.48 300.575 41.61C300.575 43.74 297.875 44.97 293.645 44.97C289.415 44.97 286.715 43.74 286.715 41.61C286.715 39.48 289.415 38.22 293.645 38.22ZM293.645 46.95C299.405 46.95 303.095 44.97 303.095 41.61C303.095 38.25 299.405 36.24 293.645 36.24C287.885 36.24 284.195 38.25 284.195 41.61C284.195 44.97 287.885 46.95 293.645 46.95ZM287.075 53.82H284.615V61.62H303.125V59.61H287.075V53.82ZM281.465 49.47V51.45H305.795V49.47H281.465ZM310.533 38.19V40.23H320.403C319.833 46.59 316.143 51.75 309.273 55.2L310.623 57.12C319.323 52.77 322.833 45.84 322.833 38.19H310.533ZM334.113 46.23H329.793V35.31H327.333V62.22H329.793V48.27H334.113V46.23ZM345.121 50.4C346.231 50.67 347.521 50.82 348.841 50.82C350.191 50.82 351.481 50.67 352.621 50.4V56.73H345.121V50.4ZM348.841 38.94C353.161 38.94 356.281 40.92 356.281 43.92C356.281 46.92 353.161 48.9 348.841 48.9C344.521 48.9 341.431 46.92 341.431 43.92C341.431 40.92 344.521 38.94 348.841 38.94ZM355.081 56.73V49.44C357.301 48.27 358.621 46.35 358.621 43.92C358.621 39.72 354.571 37.02 348.841 37.02C343.141 37.02 339.061 39.72 339.061 43.92C339.061 46.35 340.411 48.3 342.661 49.47V56.73H336.661V58.77H361.111V56.73H355.081ZM367.825 53.7305C367.825 52.4316 367.986 51.3965 368.309 50.625C368.631 49.8535 369.266 49.0088 370.213 48.0908C371.17 47.1631 371.775 46.5039 372.029 46.1133C372.42 45.5176 372.615 44.873 372.615 44.1797C372.615 43.2617 372.386 42.5635 371.927 42.085C371.478 41.5967 370.813 41.3525 369.935 41.3525C369.095 41.3525 368.416 41.5918 367.898 42.0703C367.391 42.5391 367.137 43.1787 367.137 43.9893H363.577C363.597 42.2607 364.183 40.8936 365.335 39.8877C366.497 38.8818 368.03 38.3789 369.935 38.3789C371.897 38.3789 373.426 38.877 374.52 39.873C375.623 40.8691 376.175 42.2607 376.175 44.0479C376.175 45.6396 375.433 47.207 373.948 48.75L372.146 50.5225C371.502 51.2549 371.17 52.3242 371.15 53.7305H367.825ZM367.576 58.2861C367.576 57.71 367.757 57.2461 368.118 56.8945C368.479 56.5332 368.968 56.3525 369.583 56.3525C370.208 56.3525 370.701 56.5381 371.062 56.9092C371.424 57.2705 371.604 57.7295 371.604 58.2861C371.604 58.8232 371.429 59.2725 371.077 59.6338C370.726 59.9951 370.228 60.1758 369.583 60.1758C368.938 60.1758 368.44 59.9951 368.089 59.6338C367.747 59.2725 367.576 58.8232 367.576 58.2861Z" fill="black"/>
</svg>
